<svg id="logosandtypes_com" xmlns="http://www.w3.org/2000/svg" viewBox="0 0 150 150"><path d="M0 0h150v150H0V0z" fill="none"/><path d="M78.6 37.9c-1.6 1.7-4.3 1.7-5.9 0-38.6-41.9-89.5 17-55 49.6 6.2 5.9 26 22.3 26 22.3 2.5 1.4 4.4 2.1 7.9-.4l6.2-5.6c1.6-2.1 2-4.4-.5-7.1l-26.7-23C13.9 55.6 41.2 26.2 66.7 55.1c2.4 2.4 4.8 4.8 8.4 4.8 12.1 0 14.8-18.5 34.2-17 12.6 1 23.1 17.9 11.4 30.8L72 116c-4.8 3.7-1.4 8.7 1.6 8.8H86c4.8.2 5.8-1.8 9.8-5.1 0 0 28.9-23.6 37.9-32.1 34.8-33.2-17.1-91.3-55.1-49.7z" fill="#ed3237"/></svg>